<svg width="16" height="16" viewBox="0 0 16 16" fill="none" xmlns="http://www.w3.org/2000/svg">
<g id="bi:star-fill" clip-path="url(#clip0_71_507)">
<path id="Vector" d="M8.465 0.792012L8.25 0.90053L8.465 0.792012ZM8.465 0.792012C8.41277 0.68862 8.33693 0.612639 8.25 0.564067L13.137 14.851L12.307 10.121L15.829 6.76501C16.159 6.45101 15.988 5.87701 15.547 5.81501L10.649 5.11901L8.465 0.792012ZM3.11221 14.8944L3.11223 14.8942L3.94223 10.1642L3.96537 10.0323L3.86843 9.94L0.345602 6.58416C0.345583 6.58414 0.345564 6.58412 0.345545 6.58411C0.155738 6.40287 0.273082 6.09319 0.490801 6.06258L0.491168 6.06253L5.38917 5.36653L5.51837 5.34817L5.57718 5.23166L7.75 0.926815V13.0344L3.49789 15.2206C3.31876 15.3125 3.06545 15.1599 3.11221 14.8944ZM8.25 13.0344V0.920872L10.4258 5.23166L10.4846 5.34817L10.6138 5.36653L15.5118 6.06253L15.5122 6.06258C15.7298 6.09318 15.8472 6.40264 15.6567 6.5839L15.6565 6.58402L12.1345 9.94002L12.0376 10.0324L12.0608 10.1642L12.8908 14.8942L12.8908 14.8944C12.9375 15.1599 12.6843 15.3124 12.5052 15.2206C12.5052 15.2206 12.5051 15.2206 12.5051 15.2206L8.25 13.0344ZM7.538 0.792012L7.75 0.899099L7.538 0.792012Z" stroke="#FFC90A" stroke-width="0.5"/>
</g>
<defs>
<clipPath id="clip0_71_507">
<rect width="16" height="16" fill="white"/>
</clipPath>
</defs>
</svg>
